<?xml version="1.0" encoding="UTF-8" standalone="no"?>
<svg
   viewBox="0 0 152.00976 132"
   version="1.1"
   id="svg12980"
   xmlns:xlink="http://www.w3.org/1999/xlink"
   xmlns="http://www.w3.org/2000/svg"
   xmlns:svg="http://www.w3.org/2000/svg">
  <defs
     id="defs12984">
    <linearGradient
       id="SVGID-00000005268409276694585540000015853986965625284781"
       gradientUnits="userSpaceOnUse"
       x1="39.16"
       y1="775.01501"
       x2="152.84"
       y2="775.01501"
       gradientTransform="translate(0,-650)">
      <stop
         offset="0"
         style="stop-color:#d93025"
         id="stop12940" />
      <stop
         offset="1"
         style="stop-color:#ea4335"
         id="stop12942" />
    </linearGradient>
    <linearGradient
       id="SVGID-00000175289037886816495430000013271641968500087969"
       gradientUnits="userSpaceOnUse"
       x1="-1169.8269"
       y1="59.741402"
       x2="-1056.1232"
       y2="59.741402"
       gradientTransform="matrix(-0.5,-0.866,0.866,-0.5,-533.5404,-772.0297)">
      <stop
         offset="0"
         style="stop-color:#1e8e3e"
         id="stop12947" />
      <stop
         offset="1"
         style="stop-color:#34a853"
         id="stop12949" />
    </linearGradient>
    <linearGradient
       id="SVGID-00000025418581839675921930000004546302552040502431"
       gradientUnits="userSpaceOnUse"
       x1="56.7071"
       y1="-664.77472"
       x2="170.4071"
       y2="-664.77472"
       gradientTransform="matrix(-0.5,0.866,-0.866,-0.5,-403.9008,-264.818)">
      <stop
         offset="0"
         style="stop-color:#fbbc04"
         id="stop12954" />
      <stop
         offset="1"
         style="stop-color:#fcc934"
         id="stop12956" />
    </linearGradient>
    <linearGradient
       xlink:href="#SVGID-00000005268409276694585540000015853986965625284781"
       id="linearGradient13569"
       gradientUnits="userSpaceOnUse"
       gradientTransform="translate(-20,-678)"
       x1="39.16"
       y1="775.01501"
       x2="152.84"
       y2="775.01501" />
    <linearGradient
       xlink:href="#SVGID-00000175289037886816495430000013271641968500087969"
       id="linearGradient13571"
       gradientUnits="userSpaceOnUse"
       gradientTransform="matrix(-0.5,-0.866,0.866,-0.5,-553.5404,-800.0297)"
       x1="-1169.8269"
       y1="59.741402"
       x2="-1056.1232"
       y2="59.741402" />
    <linearGradient
       xlink:href="#SVGID-00000025418581839675921930000004546302552040502431"
       id="linearGradient13573"
       gradientUnits="userSpaceOnUse"
       gradientTransform="matrix(-0.5,0.866,-0.866,-0.5,-423.9008,-292.818)"
       x1="56.7071"
       y1="-664.77472"
       x2="170.4071"
       y2="-664.77472" />
  </defs>
  <path
     id="path12926-7"
     d="M 0,0 V 121.63086 C 0,127.35086 4.6391406,132 10.369141,132 H 141.64062 c 5.72,0 10.36915,-4.63914 10.36915,-10.36914 L 152,0 Z m 58.730469,14.519531 h 34.539062 c 3.82,0 6.910159,3.090157 6.910159,6.910157 0,3.809999 -3.090159,6.910156 -6.910159,6.910156 H 58.730469 c -3.82,0 -6.910157,-3.090156 -6.910157,-6.910156 0,-3.820001 3.090157,-6.910157 6.910157,-6.910157 z"
     fill="#f1f3f4" />
  <path
     id="path12928-8"
     d="M 0,0 V 121.63086 C 0,127.35086 4.6391406,132 10.369141,132 H 141.64062 c 5.72,0 10.36915,-4.63914 10.36915,-10.36914 L 152,0 Z m 58.730469,14.519531 h 34.539062 c 3.82,0 6.910159,3.090157 6.910159,6.910157 0,3.809999 -3.090159,6.910156 -6.910159,6.910156 H 58.730469 c -3.82,0 -6.910157,-3.090156 -6.910157,-6.910156 0,-3.820001 3.090157,-6.910157 6.910157,-6.910157 z"
     fill="#f1f3f4" />
  <path
     id="rect12930-0"
     d="M 0,0 V 66.349609 H 152 V 0 Z m 58.730469,14.519531 h 34.539062 c 3.82,0 6.910159,3.090157 6.910159,6.910157 0,3.809999 -3.090159,6.910156 -6.910159,6.910156 H 58.730469 c -3.82,0 -6.910157,-3.090156 -6.910157,-6.910156 0,-3.820001 3.090157,-6.910157 6.910157,-6.910157 z"
     fill="#e8eaed" />
  <path
     id="path12945-5"
     style="fill:url(#linearGradient13569)"
     d="m 76,55.990236 c -24.29,0 -45.48984,13.190544 -56.83984,32.810544 L 28.21094,116.41016 42.17969,132 h 8.89453 L 76,88.81055 l 56.83984,-0.01 C 121.48984,69.18078 100.29,55.990236 76,55.990236 Z" />
  <path
     id="path12952-7"
     style="fill:url(#linearGradient13571)"
     d="M 19.16016,88.80078 C 11.69401,101.76587 8.79854,117.05336 11.18555,132 h 32.9082 z" />
  <path
     id="path12959-3"
     style="fill:url(#linearGradient13573)"
     d="M 76,88.81055 100.93359,132 h 39.88086 c 2.38639,-14.943 -0.50881,-30.22498 -7.97461,-43.18945 z" />
  <path
     id="ellipse12961-4"
     style="fill:#f1f3f4"
     d="m 76,88.81055 c -18.12046,0 -32.810541,14.69433 -32.810547,32.82031 0,3.62529 0.598449,7.10853 1.683594,10.36914 h 62.253903 c 1.08515,-3.26061 1.6836,-6.74385 1.6836,-10.36914 C 108.81054,103.50488 94.12046,88.81055 76,88.81055 Z" />
  <path
     id="ellipse12963-3"
     d="M 76,94.96094 A 26.66,26.67 0 0 0 49.33984,121.63086 26.66,26.67 0 0 0 51.48633,132 h 49.02734 A 26.66,26.67 0 0 0 102.66016,121.63086 26.66,26.67 0 0 0 76,94.96094 Z"
     fill="#1a73e8" />
  <rect
     x="3.8146973e-06"
     y="66.350006"
     opacity="0.1"
     fill="#bdc1c6"
     width="152"
     height="0.86000001"
     id="rect12973-0" />
  <rect
     x="3.8146973e-06"
     y="65.480011"
     opacity="0.1"
     fill="#bdc1c6"
     width="152"
     height="0.86000001"
     id="rect12975-4" />
</svg>
