<?xml version="1.0" encoding="UTF-8" standalone="no"?>
<!-- Generator: Adobe Illustrator 23.0.1, SVG Export Plug-In . SVG Version: 6.00 Build 0)  -->

<svg
   version="1.1"
   id="Livello_1"
   x="0px"
   y="0px"
   viewBox="0 0 2500 2500"
   enable-background="new 0 0 2289.75 2130"
   xml:space="preserve"
   width="2500"
   height="2500"
   xmlns="http://www.w3.org/2000/svg"><defs
   id="defs36" />
<metadata
   id="metadata2">

</metadata>
<path
   fill="#185c37"
   d="M 1564.9367,1187.6845 596.5531,1011.4357 v 1302.3027 c 0,59.4744 46.74771,107.6877 104.41427,107.6877 v 0 c 0,0 102.3575,2.7149 189.41074,-76.1473 96.57152,-87.485 479.18309,-388.9533 517.94169,-424.0543 38.7586,-35.1011 84.5548,-88.9623 156.6169,-87.2944 72.0622,1.668 93.1427,38.4107 147.4978,89.1723 54.3551,50.7616 165.4044,150.1866 351.9173,338.58 186.513,188.3934 247.7883,155.8527 289.4194,159.7437 49.8033,4.6549 122.5854,-48.2133 122.5854,-107.6877 v 0 -479.8083 z"
   id="path4"
   style="fill:#186ce7;fill-opacity:1;stroke-width:1.08638" />
<path
   fill="#21A366"
   d="M 1564.9367,71.442147 H 700.96737 c -57.66656,0 -104.41427,48.213283 -104.41427,107.687743 0,0 0,0 0,0 v 479.80825 l 968.3836,587.49596 512.6737,176.2488 398.7462,-176.2488 V 658.93814 Z"
   id="path6"
   style="fill:#21a8f7;fill-opacity:1;stroke-width:1.08638" />
<path
   fill="#107C41"
   d="m 596.5531,658.93814 h 968.3836 V 1246.4341 H 596.5531 Z"
   id="path8"
   style="fill:#007fff;fill-opacity:1;stroke-width:1.08638" />
<path
   opacity="0.1"
   d="M 1275.5939,541.43894 H 596.5531 V 1980.1454 h 679.0408 c 56.4221,-0.1891 102.116,-47.3062 102.2995,-105.4855 V 646.92463 c -0.1835,-58.1794 -45.8774,-105.29656 -102.2995,-105.48569 z"
   id="path10"
   style="stroke-width:1.06427" />
<path
   opacity="0.2"
   d="M 1219.7837,598.98719 H 596.5531 V 2037.6938 h 623.2306 c 56.4223,-0.1892 102.1162,-47.3064 102.2996,-105.4858 V 704.47288 c -0.1834,-58.17939 -45.8773,-105.29655 -102.2996,-105.48569 z"
   id="path12"
   style="stroke-width:1.06427" />
<path
   opacity="0.2"
   d="M 1219.7837,598.98719 H 596.5531 V 1922.5972 h 623.2306 c 56.4223,-0.189 102.1162,-47.3063 102.2996,-105.4857 V 704.47288 c -0.1834,-58.17939 -45.8773,-105.29655 -102.2996,-105.48569 z"
   id="path14"
   style="stroke-width:1.06427" />
<path
   opacity="0.2"
   d="M 1163.9738,598.98719 H 596.5531 V 1922.5972 h 567.4207 c 56.422,-0.189 102.116,-47.3063 102.2995,-105.4857 V 704.47288 c -0.1835,-58.17939 -45.8775,-105.29655 -102.2995,-105.48569 z"
   id="path16"
   style="stroke-width:1.06427" />
<linearGradient
   id="SVGID_1_"
   gradientUnits="userSpaceOnUse"
   x1="203.5132"
   y1="1729.0183"
   x2="967.98682"
   y2="404.98169"
   gradientTransform="matrix(1,0,0,-1,0,2132)">
	<stop
   offset="0"
   style="stop-color:#18884F"
   id="stop18" />
	<stop
   offset="0.5"
   style="stop-color:#117E43"
   id="stop20" />
	<stop
   offset="1"
   style="stop-color:#0B6631"
   id="stop22" />
</linearGradient>
<path
   fill="url(#SVGID_1_)"
   d="M 131.32995,600.18854 H 1175.7027 c 57.6666,0 104.4142,48.21329 104.4142,107.68773 V 1784.9909 c 0,59.4744 -46.7476,107.6877 -104.4142,107.6877 H 131.32995 c -57.666564,0 -104.414274,-48.2122 -104.414274,-107.6866 V 707.87627 c 0,-59.47444 46.74771,-107.68773 104.414274,-107.68773 z"
   id="path25"
   style="opacity:1;fill:#0057e7;fill-opacity:1;stroke-width:1.08638" />

<path
   fill="#33C481"
   d="M 2371.9424,71.442147 H 1564.9367 V 658.93814 h 911.4199 V 179.12989 c 0,-59.47446 -46.7477,-107.687743 -104.4142,-107.687743 z"
   id="path29"
   style="fill:#31cfff;fill-opacity:1;stroke-width:1.08638" />
<path
   fill="#107C41"
   d="m 1564.9367,1246.4341 h 911.4199 v 587.496 h -911.4199 z"
   id="path31"
   style="fill:#007fff;fill-opacity:1;stroke-width:1.08638" />
<text
   xml:space="preserve"
   style="font-style:normal;font-weight:normal;font-size:1030.58px;line-height:1.25;font-family:sans-serif;fill:#ffffff;fill-opacity:1;stroke:none;stroke-width:1.17112"
   x="309.63766"
   y="1658.8252"
   id="text2703"
   transform="scale(1.0370161,0.96430518)"><tspan
     id="tspan2701"
     x="309.63766"
     y="1658.8252"
     style="font-style:normal;font-variant:normal;font-weight:normal;font-stretch:normal;font-size:1030.58px;font-family:Bahnschrift;-inkscape-font-specification:Bahnschrift;fill:#ffffff;fill-opacity:1;stroke-width:1.17112">P</tspan></text></svg>
